# xmcd CD database file
#
# Track frame offsets:
#	150
#	7800
#	117641
#	227482
#
# Disc length: 4495 seconds
#
# Revision: 1
# Processed by: cddbd v1.5.2PL0 Copyright (c) Steve Scherf et al.
# Submitted via: CDex 1.60beta1
#
DISCID=24118d04
DTITLE=Drunvalo Melchizedek - Élet a szivben
DYEAR=2006
DGENRE=New Age
TTITLE0=01
TTITLE1=02
TTITLE2=03
TTITLE3=04
EXTD=YEAR: 2006
EXTT0=
EXTT1=
EXTT2=
EXTT3=
PLAYORDER=
